<?xml version="1.0" encoding="UTF-8"?>
<svg width="58px" height="153px" viewBox="0 0 58 153" version="1.1" xmlns="http://www.w3.org/2000/svg" xmlns:xlink="http://www.w3.org/1999/xlink">
    <!-- Generator: Sketch 52.6 (67491) - http://www.bohemiancoding.com/sketch -->
    <title>BBF Icon</title>
    <desc>Created with Sketch.</desc>
    <g id="Page-1" stroke="none" stroke-width="1" fill="none" fill-rule="evenodd">
        <g id="Loading" transform="translate(-101.000000, -96.000000)">
            <g id="BBF-Icon" transform="translate(101.000000, 96.000000)">
                <path d="M3.43243243,19 L13.4942085,19 C15.1510627,19 16.4942085,20.3431458 16.4942085,22 L16.4942085,75 L0.432432432,75 L0.432432432,22 C0.432432432,20.3431458 1.77557818,19 3.43243243,19 Z" id="Rectangle" fill="#8F00FF"></path>
                <path d="M0.432432432,75 L16.4942085,75 L16.4942085,133 C16.4942085,134.656854 15.1510627,136 13.4942085,136 L3.43243243,136 C1.77557818,136 0.432432432,134.656854 0.432432432,133 L0.432432432,75 Z" id="Rectangle" fill="#9D00E8"></path>
                <path d="M21.5135135,114 L37.5752896,114 L37.5752896,150 C37.5752896,151.656854 36.2321438,153 34.5752896,153 L24.5135135,153 C22.8566593,153 21.5135135,151.656854 21.5135135,150 L21.5135135,114 Z" id="Rectangle" fill="#9800FF"></path>
                <path d="M24.5135135,0 L34.5752896,4.4408921e-16 C36.2321438,-1.33185217e-15 37.5752896,1.34314575 37.5752896,3 L37.5752896,114 L21.5135135,114 L21.5135135,3 C21.5135135,1.34314575 22.8566593,7.48448398e-16 24.5135135,4.4408921e-16 Z" id="Rectangle" fill="#8900FF"></path>
                <path d="M44.5907336,19 L54.6525097,19 C56.3093639,19 57.6525097,20.3431458 57.6525097,22 L57.6525097,82 L41.5907336,82 L41.5907336,22 C41.5907336,20.3431458 42.9338793,19 44.5907336,19 Z" id="Rectangle" fill="#AD00FF"></path>
                <rect id="Rectangle" fill="#A218DE" x="41.5907336" y="82" width="16.0617761" height="28"></rect>
                <path d="M41.5907336,110 L57.6525097,110 L57.6525097,132 C57.6525097,134.209139 55.8616487,136 53.6525097,136 L45.5907336,136 C43.3815946,136 41.5907336,134.209139 41.5907336,132 L41.5907336,110 Z" id="Rectangle" fill="#A800FF"></path>
            </g>
        </g>
    </g>
</svg>